# xmcd CD database file
# Copyright (C) 1997 Ti Kan
#
# Track frame offsets:
#  150
#  9187
#  19120
#  29802
#  39595
#  49875
#  60062
#  69090
#  79675
#  88620
#  100880
#  117117
#  130425
#  143890
#  154290
#  165355
#  177927
#  192695
#  204290
#  217637
#
# Disc length: 3072 seconds
#
# Revision: 1
# Processed by: cddbd v1.4b41PL1 Copyright (c) Steve Scherf et al.
# Submitted via: CDWizzard Release:4.32
#
DISCID=020bfe14
DTITLE=The Everly Brothers and Gene Pitney - Greatest Hits
DYEAR=1900
DGENRE=
TTITLE0=Wake Up Little Susie - Everly Brothers
TTITLE1=Bird Dog - Everly Brothers
TTITLE2=('Til) I Kissed You - Everly Brothers
TTITLE3=Claudette - Everly Brothers
TTITLE4=All I Have To Do Is Dream - Everly Brothers
TTITLE5=Rip It Up - Everly Brothers
TTITLE6=When Will I Be Loved - Everly Brothers
TTITLE7=Bye Bye Love - Everly Brothers
TTITLE8=Problems - Everly Brothers
TTITLE9=Let it Be Me - Everly Brothers
TTITLE10=Somethings Gotten Hold of My Heart - Gene Pitney
TTITLE11=The Man Who Shot Liberty Valance - Gene Pitney
TTITLE12=Twenty Four Hours From Tulsa - Gene Pitney
TTITLE13=I'm Gonna Be Strong - Gene Pitney
TTITLE14=True Love Never Runs Smooth - Gene Pitney
TTITLE15=Half Heaven, Half Heartache - Gene Pitney
TTITLE16=Looking Thriugh The Eyes of Love - Gene Pitney
TTITLE17=It Hurts To Be In Love - Gene Pitney
TTITLE18=Last Chance To Turn Around - Gene Pitney
TTITLE19=On;y Love Can Break A Heart - Gene Pitney
EXTD=
EXTT0=
EXTT1=
EXTT2=
EXTT3=
EXTT4=
EXTT5=
EXTT6=
EXTT7=
EXTT8=
EXTT9=
EXTT10=
EXTT11=
EXTT12=
EXTT13=
EXTT14=
EXTT15=
EXTT16=
EXTT17=
EXTT18=
EXTT19=
PLAYORDER=
